<!DOCTYPE svg PUBLIC "-//W3C//DTD SVG 1.1//EN" "http://www.w3.org/Graphics/SVG/1.1/DTD/svg11.dtd">
<!-- Uploaded to: SVG Repo, www.svgrepo.com, Transformed by: SVG Repo Mixer Tools -->
<svg fill="#825B23" width="800px" height="800px" viewBox="0 0 22 22" xmlns="http://www.w3.org/2000/svg" id="memory-box-outer-light-dashed-up-left-right" style="--darkreader-inline-fill: #68491c; --darkreader-inline-stroke: #dcb47c;" transform="matrix(1, 0, 0, 1, 0, 0)" stroke="#825B23" data-darkreader-inline-fill="" data-darkreader-inline-stroke="" stroke-width="0.00022">
<g id="SVGRepo_bgCarrier" stroke-width="0"/>
<g id="SVGRepo_tracerCarrier" stroke-linecap="round" stroke-linejoin="round"/>
<g id="SVGRepo_iconCarrier">
<path d="M22 4H20V2H18V0H22V4M16 2H12V0H16V2M10 2H6V0H10V2M4 2H2V4H0V0H4V2M22 6V10H20V6H22M22 12V15H20V12H22M22 17V21H20V17H22M0 21V17H2V21H0M0 15V12H2V15H0M0 10V6H2V10H0Z"/>
</g>
</svg>